<svg xmlns="http://www.w3.org/2000/svg" width="24" height="24" viewBox="0 0 24 24" fill="none">
	<path
		fill="currentColor"
		d="M4.5 5.25A2.25 2.25 0 0 1 6.75 3h6.34a4.75 4.75 0 0 1 3.36 1.39l2.16 2.16A4.75 4.75 0 0 1 20 9.91v7.34a3.75 3.75 0 0 1-3.75 3.75h-9.5A2.25 2.25 0 0 1 4.5 18.75z"
		opacity="0.35"
	/>
	<path
		fill="currentColor"
		d="M12.95 4.5h-6.2a.75.75 0 0 0-.75.75v13.5c0 .41.34.75.75.75h9.5a2.25 2.25 0 0 0 2.25-2.25V10.3h-3.8a1.75 1.75 0 0 1-1.75-1.75z"
	/>
	<path fill="currentColor" d="M14.45 4.92V8.55c0 .14.11.25.25.25h3.63z" opacity="0.82" />
	<path
		fill="#EAF7FF"
		d="M8.52 13.58v-3.2h1.66c1.04 0 1.66.6 1.66 1.6 0 1.01-.62 1.6-1.66 1.6zm.9-.7h.67c.53 0 .85-.33.85-.9s-.32-.9-.85-.9h-.67zm3.08.7v-3.2h1.06l.9 2.2.9-2.2h1.06v3.2h-.82v-1.95l-.73 1.86h-.8l-.73-1.86v1.95zm4.56 0v-3.2h.9v3.2z"
	/>
</svg>